<?xml version="1.0" encoding="UTF-8" standalone="no"?><!DOCTYPE svg PUBLIC "-//W3C//DTD SVG 1.1//EN" "http://www.w3.org/Graphics/SVG/1.1/DTD/svg11.dtd"><svg width="100%" height="100%" viewBox="0 0 771 771" version="1.1" xmlns="http://www.w3.org/2000/svg" xmlns:xlink="http://www.w3.org/1999/xlink" xml:space="preserve" xmlns:serif="http://www.serif.com/" style="fill-rule:evenodd;clip-rule:evenodd;stroke-linecap:round;stroke-linejoin:round;stroke-miterlimit:1.5;"><path d="M332.235,52.738c1.264,-28.334 24.603,-50.655 52.965,-50.655c28.362,0 51.701,22.321 52.965,50.655l6.806,152.613c0.26,5.825 3.868,10.973 9.255,13.204c5.387,2.231 11.579,1.143 15.881,-2.793l112.727,-103.101c20.929,-19.142 53.215,-18.422 73.27,1.633c20.055,20.055 20.775,52.342 1.633,73.27l-103.101,112.727c-3.935,4.303 -5.024,10.494 -2.793,15.881c2.231,5.387 7.379,8.995 13.204,9.255l152.613,6.806c28.334,1.264 50.655,24.603 50.655,52.965c0,28.362 -22.321,51.701 -50.655,52.965l-152.613,6.806c-5.825,0.26 -10.973,3.868 -13.204,9.255c-2.231,5.387 -1.143,11.579 2.793,15.881l103.101,112.727c19.142,20.929 18.422,53.215 -1.633,73.27c-20.055,20.055 -52.342,20.775 -73.27,1.633l-112.727,-103.101c-4.303,-3.935 -10.494,-5.024 -15.881,-2.793c-5.387,2.231 -8.995,7.379 -9.255,13.204l-6.806,152.613c-1.264,28.334 -24.603,50.655 -52.965,50.655c-28.362,0 -51.701,-22.321 -52.965,-50.655l-6.806,-152.613c-0.26,-5.825 -3.868,-10.973 -9.255,-13.204c-5.387,-2.231 -11.579,-1.143 -15.881,2.793l-112.727,103.101c-20.929,19.142 -53.215,18.422 -73.27,-1.633c-20.055,-20.055 -20.775,-52.342 -1.633,-73.27l103.101,-112.727c3.935,-4.303 5.024,-10.494 2.793,-15.881c-2.231,-5.387 -7.379,-8.995 -13.204,-9.255l-152.613,-6.806c-28.334,-1.264 -50.655,-24.603 -50.655,-52.965c0,-28.362 22.321,-51.701 50.655,-52.965l152.613,-6.806c5.825,-0.26 10.973,-3.868 13.204,-9.255c2.231,-5.387 1.143,-11.579 -2.793,-15.881l-103.101,-112.727c-19.142,-20.929 -18.422,-53.215 1.633,-73.27c20.055,-20.055 52.342,-20.775 73.27,-1.633l112.727,103.101c4.303,3.935 10.494,5.024 15.881,2.793c5.387,-2.231 8.995,-7.379 9.255,-13.204l6.806,-152.613Z" style="fill:none;stroke:#00c951;stroke-width:4.17px;"/></svg>